<svg width="33" height="34" viewBox="0 0 33 34" fill="none" xmlns="http://www.w3.org/2000/svg">
<g clip-path="url(#clip0_4_4102)">
<path d="M26.5389 13.5356C27.1028 13.7141 27.4247 14.0157 27.4992 14.4457C27.5738 14.8756 27.414 15.3341 27.0256 15.8157C26.6089 16.3244 26.1067 16.6645 25.5358 16.8306C23.3366 17.4358 20.8149 17.5002 17.9709 17.0126C19.9963 15.3968 22.2344 14.2527 24.6912 13.5639C25.3573 13.3718 25.9695 13.3623 26.5389 13.5356ZM18.8828 7.14493C19.3799 6.77694 19.8832 6.65387 20.3926 6.77582C20.7907 6.89536 21.0895 7.2409 21.3056 7.81847C21.4822 8.42301 21.4811 9.01281 21.2913 9.57632C20.7192 11.4004 19.3164 13.5745 17.0941 16.0987C16.7683 13.5771 16.9919 11.117 17.7595 8.72391C17.9789 8.06641 18.3571 7.54013 18.8828 7.14493ZM24.491 23.9916C24.5291 24.5654 24.3751 25.0185 24.0174 25.3615C23.6938 25.6719 23.2298 25.7791 22.6308 25.6888C22.059 25.6268 21.5799 25.3887 21.1933 24.9857C19.723 23.4529 18.5442 21.2808 17.6625 18.4639C19.982 19.2911 22.0351 20.6245 23.8104 22.4752C24.2243 22.9067 24.4585 23.4123 24.4912 23.9805M8.53437 11.1525C8.49855 10.4675 8.68785 9.92616 9.10227 9.52863C9.45424 9.191 9.99087 9.0686 10.7012 9.16133C11.383 9.2812 11.9499 9.57674 12.391 10.0366C13.7197 11.4218 14.8433 13.5704 15.7568 16.4659C12.7251 15.3736 10.602 14.1944 9.38219 12.9228C8.88118 12.4005 8.60399 11.816 8.53437 11.1525ZM14.9319 27.5037C14.4618 27.9001 13.9971 28.0407 13.5434 27.92C13.1453 27.8004 12.8574 27.4662 12.674 26.9227C12.4917 26.3236 12.4928 25.7338 12.6883 25.1648C13.5151 22.5949 14.7108 20.4778 16.2811 18.808C16.7091 21.5041 16.6046 23.8498 15.9733 25.8507C15.7526 26.5639 15.4017 27.1185 14.9316 27.5149M6.91799 21.4562C6.38377 21.1948 6.06365 20.8042 5.96869 20.2848C5.86579 19.8821 6.02561 19.4237 6.4423 18.9149C6.8579 18.4618 7.35402 18.1494 7.93039 17.9889C10.1295 17.3837 12.6179 17.3186 15.4062 17.805C12.9962 19.7244 10.7276 20.9958 8.58976 21.5967C8.00763 21.7626 7.4522 21.7177 6.91799 21.4562Z" fill="#EDF738"/>
</g>
<defs>
<clipPath id="clip0_4_4102">
<rect width="22.6721" height="20.1529" fill="white" transform="translate(16.9707 32.1211) rotate(-133.808)"/>
</clipPath>
</defs>
</svg>
